<?xml version="1.0" encoding="utf-8"?>
<!-- Generator: Adobe Illustrator 28.0.0, SVG Export Plug-In . SVG Version: 6.00 Build 0)  -->
<svg version="1.1" id="Слой_1" xmlns="http://www.w3.org/2000/svg" xmlns:xlink="http://www.w3.org/1999/xlink" x="0px" y="0px"
	 viewBox="0 0 1280 600" style="enable-background:new 0 0 1280 600;" xml:space="preserve">
<style type="text/css">
	.st0{fill-rule:evenodd;clip-rule:evenodd;}
	.st1{fill-opacity:0.3;}
</style>
<g>
	<path d="M545,206h40v160h40V166h-40C563,166,545,184,545,206z"/>
	<path d="M665,246v120h40v-80C705,264,687,246,665,246z"/>
	<path d="M825,246h-80v120h40v-80h40v40c0,22,18,40,40,40v-80C865,264,847,246,825,246z"/>
	<path d="M1105,246h-40v-40c0-22-18-40-40-40v160h-80v-40h40v-40h-40c-22,0-40,18-40,40v40c0,22,18,40,40,40h120v-80h40v40
		c0,22,18,40,40,40v-80C1145,264,1127,246,1105,246z"/>
	<path d="M665,166v40h40C705,184,687,166,665,166z"/>
</g>
<g>
	<path class="st0" d="M384.3,152c0,0,16.4,0.7,33.5,2.6c-38.4-30.2-74.8-39-104.3-39c-40.4,0-67.8,16.5-69.8,17.7h-0.1l12.8-20.3
		c0,0-51.1-4.9-69.2,49.2c-4.6-11.5-8.8-28.2-8.8-28.2s-26.6,23.3-14.1,62C133.7,184.7,90,169.3,88.4,169c-2.3-0.3-2.9,0.7-2.9,0.7
		s-0.7,1,1.3,2.6c3.6,2.9,72.5,53.8,87.6,63.6c-3.3,11.8-3.3,17.4,0,23c4.6,7.5,4.9,11.5,4.3,17.1c-0.7,5.6-6.5,53.8-7.9,59.7
		c-0.5,2.4-3.1,7.2-5.9,12.5c-4.1,7.9-8.9,16.8-8.5,20.6c0.7,6.2,9.2,32.8,16.7,35.8c5.6,2,19.4,6.2,28.5,6.2c3.3,0,6.2-0.7,7.5-2
		c5.6-4.9,7.2-5.9,11.2-5.9h1c0.8,0,1.6,0.1,2.5,0.2l0,0l0,0l0,0l0,0l0,0l0,0c1,0.1,2.2,0.2,3.4,0.2c5.2,0,12.2-1,17.1-5.6
		c3.4-3.4,8-7.4,12.3-11.1l0,0l0,0l0,0c4.8-4.2,9.3-8.1,11.3-10.5c4.9-6.2,7.5-14.8,6.2-23.3c-1-7.9,3.3-14.8,8.2-21.6
		c6.2-8.2,17.7-23,17.7-23c22.6,17.1,36.7,43,36.7,71.9c0,51.1-44.6,92.5-99.7,92.5c-8.5,0-16.7-1-24.9-2.9
		c25.2,8.8,46.6,11.8,64,11.8c37.1,0,56.8-13.5,56.8-13.5s-6.9,8.8-18,19h0.3c61.3-8.5,91.2-59.1,91.2-59.1s-2.3,16.4-5.2,27.5
		c79.6-59.8,68.5-134.2,67.6-140.4l0,0c0-0.2-0.1-0.3-0.1-0.3c0.4,0.6,3.7,4.6,7.1,8.8l0,0l0,0l0,0c2.1,2.6,4.3,5.2,5.9,7.3
		C494.8,195.6,384.3,152,384.3,152z M250.7,375.3L250.7,375.3L250.7,375.3L250.7,375.3c-1,0.9-2,1.8-2.9,2.6
		c-1.4,1.3-2.8,2.5-4.1,3.8c-2.6,2.3-5.2,4.6-7.3,6.8c-1.3,1.3-3.9,2-7.9,2h-3.6h-2h-1.3h-2.9c4.9-6.5,19.4-21.6,24.3-24.9
		c5.9-3.9,8.8-7.9,5.2-14.8c-3.6-6.9-13.1-5.2-13.1-5.2s5.6-2.3,10.5-2.3c-6.2-1.6-14.1,0-17.7,3.6c-2.6,2.4-3.2,8.9-3.8,15.4l0,0
		c-0.3,3.2-0.6,6.5-1.1,9.2c-1.5,7.6-6.1,11.8-13.2,18.3l0,0c-0.8,0.8-1.7,1.5-2.6,2.3c-4.6,4.3-7.9,5.6-10.5,5.6
		c-5.6-1-12.2-2.6-16.7-4.3c-3.3-4.3-8.2-18.4-9.5-24.3c0.7-2.3,2.9-6.6,4.9-10.3l0,0c0.8-1.4,1.5-2.8,2-3.9l0.4-0.7l0.2-0.3
		c3.6-6.9,5.7-11,6.3-14.7c1.3-5.6,5.6-40,7.2-54.5c4.3,5.6,10.1,14.8,8.8,20.7c9.5-13.5,2.6-26.6-0.7-31.8
		c-2.9-5.2-6.9-15.8-3.6-26.9c3.3-11.2,15.1-42,15.1-42s3.9,6.9,9.5,5.6c5.6-1.3,50.5-68.9,50.5-68.9s12.2,26.6-0.7,45.9
		c-13,19.5-25.8,23.1-25.8,23.1s18,3.3,34.8-8.8c6.9,16.1,13.5,32.8,13.8,35.1c-0.2,0.4-0.7,1.6-1.4,3.4c-3.7,8.7-12.9,30.8-14,32.4
		c-0.7,0.7-5.2,2-8.5,2.6c-5.6,1.6-8.8,2.6-10.1,3.6c-2.3,2-12.8,30.8-17.7,44.9c-5.9,1.6-11.8,4.9-16.1,11.5
		c2.3-1.6,9.5-2.6,14.8-3.3c4.6-0.3,18.7,7.2,22.3,21.3v0.7c0.7,5.2-1,10.1-3.6,14.1C257.6,369.1,254.1,372.3,250.7,375.3
		L250.7,375.3z M227.8,371.8c2.3-3.4,2.6-8.6,2.8-11.7c0.1-0.9,0.1-1.6,0.2-2.1c0.3-2.3,1-6.5,3.6-7.2s8.8,0.3,8.8,4.9
		c0,2.9-2.2,4.3-4.6,5.8c-1.1,0.7-2.2,1.4-3.3,2.3c-1.5,1.5-4,4.1-5.7,5.9l0,0l0,0C228.7,370.8,228,371.5,227.8,371.8z M358.6,309.2
		c3.3-16.7,3.6-31.1,2.6-43c12.8,17.1,20.7,37.7,23,59.1c0.3,2.6,2.9,5.2,5.6,7.9c2.3,2,4.9,4.6,4.9,6.2c0,7.5-0.7,15.1-2,22.6
		c-0.3,0.9-3,2.5-5.2,3.7l0,0l-0.1,0.2l-0.2,0.1c-3.3,1.6-6.2,3.3-6.9,5.9c-7.2,25.2-22.6,47.5-43.3,63.3
		C367.5,403.3,382.3,350.8,358.6,309.2z M338,438.1c21.3-16.4,37.7-39.4,44.9-65.3c0.3-0.8,2.1-1.9,3.8-3c0.5-0.3,1-0.7,1.5-0.9
		c3.3-1.6,6.5-3.6,7.2-6.2c1.3-7.5,2-15.4,2-23.3c0-2.9-2.9-5.9-5.9-8.8c-0.4-0.5-0.9-1-1.4-1.5l0,0c-1.4-1.5-2.9-3.2-2.9-4.4
		c-2.6-23.9-12.2-46.6-26.9-65.3c-6.4-38.7-32-51.1-33.4-51.8h-0.1c0,0,0,0.1,0.1,0.1c1.1,1.6,17.5,26,5.9,54.4
		c-10.9,26.1-36.9,25.2-44.2,24.9l0,0l0,0l0,0l0,0l0,0c-0.9-0.1-1.5-0.1-1.7,0c-2.6,0-12.8,13.1-25.6,37.4c-1.6-0.7-8.5-2.3-16.4-1
		c5.9-16.4,14.8-39.7,16.4-41.7c0.5-0.5,3.8-1.5,6.7-2.3c0.8-0.2,1.5-0.4,2.1-0.7c6.2-1.6,9.2-2.6,10.1-3.9c0.7-1,3.9-8.5,7.2-16.4
		c2.9,0,10.5-0.7,11.2-1c0.7-0.7,6.9-16.7,6.9-18.7c0-1.6-12.8-33.5-17.7-45.6c2.3-2.6,4.6-5.9,6.9-9.5
		c67.2,7.2,119.7,64.3,119.7,133.5C414.4,370.1,383.3,416.4,338,438.1z M267.8,161.2c0,0,2.9,13.1-4.6,22
		c-9.5,10.9-17.7,10.5-17.4,10.5L267.8,161.2z M192,347.5l-2.6,13.1c0,0,5.2-0.7,5.2,5.2c0,4.6-5.2,10.9-9.5,11.2s-5.9-4.9-4.9-7.9
		C181.2,366.5,192,347.5,192,347.5z M242.2,237.9c11.5,2.3,14.8,15.8,8.5,23c-6.2,6.9-22,16.7-31.1,19c-2,7.5-18.7,4.3-12.5-19.7
		c0,0,2.9,11.5,5.9,10.5c2.9-1,36.4-53.5,36.4-53.5S245.2,231.1,242.2,237.9z M239.3,244.5l-17.1,29.2c0,0,15.8-7.2,22-16.4
		C249.1,249.4,239.3,244.5,239.3,244.5z M237,124.5c-29.5,17.7-23.6,60-23.6,60c-26.9-41.1,17-57.5,23-59.8l0,0
		C236.7,124.6,236.9,124.5,237,124.5z M380,141.9c-48.9-9.2-80.4-4.6-103,3.9c-0.7-2.6-2.9-7.9-4.9-12.2
		c-6.7,7.9-13.6,17.3-18.2,23.6l-0.5,0.7c-12.5,8.5-17.7,16.7-17.7,16.7c7.2-24.6,28.2-43,53.8-47.5c7.2-1.3,15.1-2,23.6-2
		C335.7,125.5,358.3,131,380,141.9z M390.5,200.2c46.2,30.5,67.2,64.3,82,104c-0.7-42-14.8-78.1-42-106.9l-0.7-0.7
		c-23.9-25.2-59.1-37.1-93.8-32.2c-13.1,1.6-26.2,4.3-36.4,7.5c-1.6,0.3-3.3,0.7-4.9,1.3h0.7C298,173,345.9,170.7,390.5,200.2z
		 M416.1,428.8c6.5-6.5,12.2-13.5,17.1-20c28.2-39.4,24.3-93.5-8.2-129.6c-2.6-2.9-5.6-6.2-8.5-9.2
		C418,273.1,458.4,347.5,416.1,428.8z M174.2,156.6c-1.3,4.7-12.3,46.9,25,48.3c-22.3-13.5-24.9-48.2-24.9-48.5
		C174.3,156.4,174.3,156.5,174.2,156.6L174.2,156.6z M190,225.5c2.3-4.3,0.3-7.2-1.6-8.8l-0.7-0.7c-3.9-2-28.5-11.2-52.8-19.7
		c21.3,14.1,44.9,27.9,48.9,29.8C186.8,227.5,188.7,227.8,190,225.5z"/>
	<g>
		<path class="st1" d="M283,210.2c-1.2-2.9-2.4-5.8-3.6-8.7c-12.3,8.9-25.3,9.5-31.3,9.2C254.3,212.2,267.9,214.3,283,210.2z"/>
		<path class="st1" d="M296.4,173.2c-0.5,0-1,0-1.4,0c-0.1,0-0.1,0-0.2,0.1h0.7C295.5,173.3,295.9,173.2,296.4,173.2z"/>
		<path class="st1" d="M317.1,188c-7.2-2.1-14.7-3.5-22.4-4.4c-2.3,3.6-4.6,6.9-6.9,9.5c1.3,3.3,3.3,8.1,5.4,13.4
			C301.4,202.8,309.6,196.9,317.1,188z"/>
		<path class="st1" d="M289.6,278.3c-11.5,0-26.9,7.5-26.9,7.5l-15.2,37.2c6.8-0.6,12.3,0.7,13.8,1.3c12.8-24.3,23-37.4,25.6-37.4
			c0.3-0.1,0.9-0.1,1.7,0c7.3,0.3,33.3,1.2,44.2-24.9c11.2-27.5-3.6-51.1-5.7-54.2C340.5,252.9,310.2,278,289.6,278.3z"/>
		<path class="st1" d="M380.3,371.8c0.7-2.6,3.6-4.3,6.9-5.9l0.2-0.1l0.1-0.2c2.2-1.3,4.9-2.8,5.2-3.7c1.3-7.5,2-15.1,2-22.6
			c0-1.6-2.6-4.3-4.9-6.2c-2.6-2.6-5.2-5.2-5.6-7.9c-2.3-21.3-10.1-42-23-59.1c1,11.8,0.7,26.2-2.6,43c23.7,41.7,8.9,94.1-21.6,126
			C357.7,419.4,373.1,397.1,380.3,371.8z"/>
		<path class="st1" d="M410.9,310.1c-11.8-66.9-80-101-84-102.7c0,0.1,0,0.1,0,0.2c2.2,1.1,26,13.2,32.9,49.4
			c16.3,19,26.5,42.8,29.3,67.9c0,1.6,2.3,3.9,4.6,5.9c2.9,2.9,5.9,5.9,5.9,8.8c0,7.9-0.7,15.8-2,23.3c-0.7,2.6-3.9,4.3-7.2,6.2
			c-2,1.3-4.9,2.9-5.2,3.9c-6.7,23.6-20.6,44.8-39.3,60.8c31-17.5,54.3-46.9,63.8-81.9C412.8,338.6,413.4,324.5,410.9,310.1z"/>
		<path class="st1" d="M262.3,353.2c-3.6-14.1-17.7-21.6-22.3-21.3c-5.3,0.7-12.5,1.6-14.8,3.3c4.3-6.6,10.2-9.9,16.1-11.5
			c1.7-4.8,4-11.4,6.4-18c-5.6,3-25.4,13.5-27.1,14.7c-2,1.3-8.9,15-14.1,29.5c-2.9-9.2-9.5-14.8-9.8-15.1
			c0.3,1.6,7.2,28.9,4.9,37.1c-2.3,8.6-16.7,16.1-16.7,16.1l21.6,4.8c0.2-0.2,0.4-0.3,0.6-0.5c0.9-0.8,1.7-1.6,2.6-2.3
			c7.1-6.5,11.7-10.7,13.2-18.3c0.5-2.7,0.9-6,1.1-9.2c0.6-6.5,1.2-13,3.8-15.4c3.6-3.6,11.5-5.2,17.7-3.6c-1.8,0-3.7,0.3-5.3,0.7
			c5.6,0.1,13.1,2.2,12.9,13.4c0,8.6-9.5,9.2-19,17.1c-2,1.7-4.3,3.7-6.5,5.8c-3.7,3.9-7,7.7-8.9,10.3h2.9h1.3h2h3.6
			c3.9,0,6.5-0.7,7.9-2c2.1-2.1,4.7-4.4,7.3-6.8c1.4-1.3,2.8-2.5,4.1-3.8c0.9-0.8,1.9-1.7,2.9-2.6c3.4-3.1,6.9-6.2,8-7.4
			c2.6-4,4.3-8.9,3.6-14.1V353.2z"/>
	</g>
</g>
</svg>
