<svg width="197" height="54" viewBox="0 0 197 54" fill="none" xmlns="http://www.w3.org/2000/svg">
<path d="M19.092 52V7.156H17.76L10.804 23.584H0.888L11.47 0.199996H28.564V52H19.092ZM34.939 52V15.296H44.115V20.106H45.447C46.039 18.8233 47.149 17.6147 48.777 16.48C50.405 15.296 52.8717 14.704 56.177 14.704C59.0383 14.704 61.5297 15.37 63.651 16.702C65.8217 17.9847 67.499 19.7853 68.683 22.104C69.867 24.3733 70.459 27.0373 70.459 30.096V52H61.135V30.836C61.135 28.0733 60.4443 26.0013 59.063 24.62C57.731 23.2387 55.807 22.548 53.291 22.548C50.4297 22.548 48.2097 23.51 46.631 25.434C45.0523 27.3087 44.263 29.948 44.263 33.352V52H34.939ZM98.3726 53.036C94.8206 53.036 92.0826 52.3947 90.1586 51.112C88.2839 49.8293 86.8779 48.3987 85.9406 46.82H84.7566V52H77.2826V0.199996H84.9046V20.476H86.0886C86.6806 19.4893 87.4699 18.552 88.4566 17.664C89.4433 16.7267 90.7506 15.962 92.3786 15.37C94.0066 14.778 96.0046 14.482 98.3726 14.482C101.431 14.482 104.243 15.222 106.809 16.702C109.374 18.182 111.421 20.328 112.951 23.14C114.48 25.952 115.245 29.3067 115.245 33.204V34.314C115.245 38.2607 114.455 41.64 112.877 44.452C111.347 47.2147 109.3 49.336 106.735 50.816C104.219 52.296 101.431 53.036 98.3726 53.036ZM96.1526 46.376C99.4579 46.376 102.171 45.3153 104.293 43.194C106.463 41.0727 107.549 38.0387 107.549 34.092V33.426C107.549 29.5287 106.488 26.5193 104.367 24.398C102.245 22.2767 99.5073 21.216 96.1526 21.216C92.8966 21.216 90.1833 22.2767 88.0126 24.398C85.8913 26.5193 84.8306 29.5287 84.8306 33.426V34.092C84.8306 38.0387 85.8913 41.0727 88.0126 43.194C90.1833 45.3153 92.8966 46.376 96.1526 46.376ZM138.083 53.036C134.432 53.036 131.176 52.296 128.315 50.816C125.503 49.2867 123.283 47.116 121.655 44.304C120.027 41.492 119.213 38.162 119.213 34.314V33.204C119.213 29.356 120.027 26.0507 121.655 23.288C123.283 20.476 125.503 18.3053 128.315 16.776C131.176 15.2467 134.432 14.482 138.083 14.482C141.734 14.482 144.99 15.2467 147.851 16.776C150.712 18.3053 152.957 20.476 154.585 23.288C156.213 26.0507 157.027 29.356 157.027 33.204V34.314C157.027 38.162 156.213 41.492 154.585 44.304C152.957 47.116 150.712 49.2867 147.851 50.816C144.99 52.296 141.734 53.036 138.083 53.036ZM138.083 46.228C141.438 46.228 144.151 45.1673 146.223 43.046C148.344 40.8753 149.405 37.8907 149.405 34.092V33.426C149.405 29.6273 148.369 26.6673 146.297 24.546C144.225 22.3753 141.487 21.29 138.083 21.29C134.778 21.29 132.064 22.3753 129.943 24.546C127.871 26.6673 126.835 29.6273 126.835 33.426V34.092C126.835 37.8907 127.871 40.8753 129.943 43.046C132.064 45.1673 134.778 46.228 138.083 46.228ZM157.323 52L171.235 33.574L157.619 15.518H166.573L176.119 28.616H177.303L186.849 15.518H195.877L182.187 33.574L196.099 52H186.997L177.303 38.606H176.119L166.425 52H157.323Z" fill="white"/>
</svg>
