<svg width="588" height="82" viewBox="0 0 588 82" fill="none" xmlns="http://www.w3.org/2000/svg">
<path d="M221.636 74.0219C216.129 74.0219 211.331 72.9431 207.243 70.7854C203.154 68.571 200.003 65.4765 197.789 61.5019C195.574 57.4704 194.467 52.7293 194.467 47.2784C194.467 41.8274 195.546 37.1431 197.704 33.2252C199.861 29.2506 202.927 26.2128 206.902 24.1119C210.933 21.9543 215.675 20.8755 221.125 20.8755C226.463 20.8755 231.034 21.8975 234.838 23.9416C238.699 25.9857 241.652 28.9099 243.696 32.7142C245.74 36.5185 246.762 41.0609 246.762 46.3415V51.111H208.009C208.577 54.9153 210.025 57.8111 212.353 59.7984C214.681 61.7857 217.747 62.7794 221.551 62.7794C224.561 62.7794 226.945 62.2684 228.706 61.2463C230.466 60.2243 231.715 58.6628 232.453 56.562H246.591C245.456 62.0129 242.702 66.2998 238.33 69.4227C233.958 72.4889 228.393 74.0219 221.636 74.0219ZM208.35 41.7423H233.22C232.765 38.5058 231.516 36.0926 229.472 34.5028C227.428 32.8561 224.674 32.0328 221.211 32.0328C217.747 32.0328 214.908 32.8561 212.694 34.5028C210.536 36.1494 209.088 38.5626 208.35 41.7423Z" fill="white"/>
<path d="M176.179 72.9999C172.545 72.9999 169.706 72.0914 167.662 70.2744C165.675 68.4007 164.681 65.5616 164.681 61.7574V32.9697H155.909V21.8975H164.852V6.5668H178.649V21.8975H190.488V32.9697H178.82V61.9277H191.68V72.9999H176.179Z" fill="white"/>
<path d="M136.446 72.9999V21.8975H150.584V72.9999H136.446ZM143.515 16.8724C141.357 16.8724 139.512 16.1343 137.979 14.658C136.503 13.1249 135.765 11.2796 135.765 9.12193C135.765 6.96427 136.503 5.14729 137.979 3.67101C139.512 2.13794 141.357 1.3714 143.515 1.3714C145.673 1.3714 147.49 2.13794 148.966 3.67101C150.499 5.14729 151.266 6.96427 151.266 9.12193C151.266 11.2796 150.499 13.1249 148.966 14.658C147.49 16.1343 145.673 16.8724 143.515 16.8724Z" fill="white"/>
<path d="M75.4237 72.9999V35.8655H68.4397V21.8975H82.7484V30.2442H86.3255C88.3128 27.2916 90.8112 25.0204 93.8205 23.4306C96.8299 21.7839 100.577 20.9606 105.063 20.9606C112.161 20.9606 117.64 22.9196 121.501 26.8374C125.419 30.6985 127.378 35.8939 127.378 42.4236V72.9999H113.239V45.0639C113.239 41.3164 112.217 38.4774 110.173 36.5469C108.186 34.5595 105.262 33.5659 101.401 33.5659C97.5396 33.5659 94.5871 34.5595 92.543 36.5469C90.5557 38.4774 89.562 41.3164 89.562 45.0639V72.9999H75.4237Z" fill="white"/>
<path d="M30.5762 74.0219C24.3872 74.0219 18.993 73.0851 14.3938 71.2113C9.79462 69.2808 6.24584 66.3566 3.74751 62.4387C1.24917 58.4641 0 53.4106 0 47.2784V4.01169H14.7345V45.2343C14.7345 50.0606 16.0121 53.8365 18.5672 56.562C21.1791 59.2306 25.3241 60.565 31.0021 60.565C36.7937 60.565 40.9387 59.1455 43.437 56.3064C45.9921 53.4674 47.2697 49.8051 47.2697 45.3194V4.01169H61.6635V47.4487C61.6635 56.3064 58.9097 62.9497 53.402 67.3786C47.8943 71.8075 40.2857 74.0219 30.5762 74.0219Z" fill="white"/>
<path d="M578.621 73V21.8976H586.627V73H578.621ZM582.624 14.2323C581.204 14.2323 579.983 13.7497 578.961 12.7844C577.996 11.7623 577.513 10.5416 577.513 9.12205C577.513 7.70254 577.996 6.51015 578.961 5.54488C579.983 4.52283 581.204 4.01181 582.624 4.01181C584.043 4.01181 585.235 4.52283 586.201 5.54488C587.223 6.51015 587.734 7.70254 587.734 9.12205C587.734 10.5416 587.223 11.7623 586.201 12.7844C585.235 13.7497 584.043 14.2323 582.624 14.2323Z" fill="white"/>
<path d="M532.687 73H524.51V4.01181H571.014V10.9958H532.687V34.7584H568.97V41.7424H532.687V73Z" fill="white"/>
<path d="M489.958 74.0221C484.734 74.0221 480.192 72.9432 476.331 70.7856C472.469 68.5711 469.489 65.4482 467.388 61.4168C465.287 57.3854 464.236 52.6726 464.236 47.2785C464.236 41.8843 465.287 37.2283 467.388 33.3105C469.489 29.3359 472.441 26.2697 476.245 24.1121C480.05 21.9544 484.507 20.8756 489.617 20.8756C494.444 20.8756 498.617 21.8693 502.137 23.8566C505.658 25.7871 508.383 28.5409 510.314 32.1181C512.301 35.6953 513.295 39.9254 513.295 44.8085V48.3857H471.902C472.129 54.2341 473.832 58.8049 477.012 62.0982C480.248 65.3914 484.535 67.0381 489.873 67.0381C493.563 67.0381 496.686 66.2431 499.241 64.6533C501.853 63.0634 503.642 60.7638 504.607 57.7545H512.784C511.478 62.9215 508.809 66.9245 504.778 69.7635C500.803 72.6025 495.863 74.0221 489.958 74.0221ZM472.328 42.2534H505.544C505.147 37.6542 503.528 34.077 500.689 31.5219C497.85 28.9668 494.131 27.6892 489.532 27.6892C484.933 27.6892 481.1 28.9668 478.034 31.5219C475.025 34.077 473.122 37.6542 472.328 42.2534Z" fill="white"/>
<path d="M396.651 73V4.01181H420.839C428.334 4.01181 434.779 5.40293 440.173 8.18517C445.624 10.9106 449.797 14.8569 452.693 20.0239C455.646 25.1909 457.122 31.3516 457.122 38.5059C457.122 45.6035 455.646 51.7357 452.693 56.9028C449.741 62.0698 445.539 66.0444 440.088 68.8266C434.694 71.6089 428.278 73 420.839 73H396.651ZM404.827 66.016H420.839C429.584 66.016 436.397 63.6312 441.28 58.8617C446.22 54.0353 448.69 47.2501 448.69 38.5059C448.69 29.7049 446.249 22.9197 441.365 18.1501C436.482 13.3806 429.64 10.9958 420.839 10.9958H404.827V66.016Z" fill="white"/>
<path d="M365.097 46.092C359.809 65.8303 346.872 79.5137 336.203 76.6549C325.533 73.7961 321.172 55.4775 326.46 35.7393C331.749 16.001 344.686 2.31756 355.355 5.1764C366.025 8.03523 370.386 26.3538 365.097 46.092Z" fill="url(#paint0_linear_4051_2)"/>
<path d="M338.097 46.092C332.808 65.8303 319.872 79.5137 309.202 76.6549C298.533 73.7961 294.171 55.4775 299.46 35.7393C304.749 16.001 317.686 2.31754 328.355 5.17638C339.024 8.03522 343.386 26.3538 338.097 46.092Z" fill="url(#paint1_linear_4051_2)"/>
<path d="M311.25 46.092C305.961 65.8303 293.024 79.5137 282.355 76.6549C271.686 73.7961 267.324 55.4775 272.613 35.7393C277.902 16.001 290.838 2.31754 301.507 5.17638C312.177 8.03522 316.539 26.3538 311.25 46.092Z" fill="url(#paint2_linear_4051_2)"/>
<defs>
<linearGradient id="paint0_linear_4051_2" x1="355.355" y1="5.1764" x2="336.203" y2="76.6548" gradientUnits="userSpaceOnUse">
<stop stop-color="#9341FF" stop-opacity="0.1"/>
<stop offset="1" stop-color="#9341FF"/>
</linearGradient>
<linearGradient id="paint1_linear_4051_2" x1="328.355" y1="5.17639" x2="309.202" y2="76.6548" gradientUnits="userSpaceOnUse">
<stop stop-color="#009DFF"/>
<stop offset="1" stop-color="#0026FF" stop-opacity="0.4"/>
</linearGradient>
<linearGradient id="paint2_linear_4051_2" x1="301.507" y1="5.17638" x2="319.601" y2="73.157" gradientUnits="userSpaceOnUse">
<stop stop-color="white" stop-opacity="0.1"/>
<stop offset="1" stop-color="white"/>
</linearGradient>
</defs>
</svg>
