<svg xmlns="http://www.w3.org/2000/svg" version="1.1" xmlns:xlink="http://www.w3.org/1999/xlink" width="100" height="100"><svg width="100" height="100" viewBox="0 0 100 100" fill="none" xmlns="http://www.w3.org/2000/svg">
<path d="M25.8868 83V24.824H24.1588L15.1348 46.136H2.27075L15.9988 15.8H38.1748V83H25.8868ZM46.445 83V35.384H58.349V41.624H60.077C60.845 39.96 62.285 38.392 64.397 36.92C66.509 35.384 69.709 34.616 73.997 34.616C77.709 34.616 80.941 35.48 83.693 37.208C86.509 38.872 88.685 41.208 90.221 44.216C91.757 47.16 92.525 50.616 92.525 54.584V83H80.429V55.544C80.429 51.96 79.533 49.272 77.741 47.48C76.013 45.688 73.517 44.792 70.253 44.792C66.541 44.792 63.661 46.04 61.613 48.536C59.565 50.968 58.541 54.392 58.541 58.808V83H46.445Z" fill="#0A0A0A"></path>
</svg><style>@media (prefers-color-scheme: light) { :root { filter: none; } }
@media (prefers-color-scheme: dark) { :root { filter: none; } }
</style></svg>